<?xml version="1.0" encoding="UTF-8"?>
<!DOCTYPE svg PUBLIC "-//W3C//DTD SVG 1.1//EN" "http://www.w3.org/Graphics/SVG/1.1/DTD/svg11.dtd">
<!-- Creator: CorelDRAW X8 -->
<svg xmlns="http://www.w3.org/2000/svg" xml:space="preserve" width="8.05515in" height="3.1011in" version="1.1" style="shape-rendering:geometricPrecision; text-rendering:geometricPrecision; image-rendering:optimizeQuality; fill-rule:evenodd; clip-rule:evenodd"
viewBox="0 0 18604 7162"
 xmlns:xlink="http://www.w3.org/1999/xlink">
 <defs>
  <style type="text/css">
   <![CDATA[
    .fil0 {fill:url(#id0)}
    .fil1 {fill:url(#id1);fill-rule:nonzero}
   ]]>
  </style>
  <linearGradient id="id0" gradientUnits="userSpaceOnUse" x1="6612.8" y1="-1592.79" x2="13128.5" y2="8706.36">
   <stop offset="0" style="stop-opacity:1; stop-color:#0098DA"/>
   <stop offset="0.6" style="stop-opacity:1; stop-color:#0175C0"/>
   <stop offset="1" style="stop-opacity:1; stop-color:#0252A5"/>
  </linearGradient>
  <linearGradient id="id1" gradientUnits="userSpaceOnUse" xlink:href="#id0" x1="10370" y1="1447.87" x2="12413.6" y2="6031.85">
  </linearGradient>
 </defs>
 <g id="Layer_x0020_1">
  <metadata id="CorelCorpID_0Corel-Layer"/>
  <path class="fil0" d="M16985 6578l-120 0 -8625 0 -2703 0 -2265 -2723 0 1214 -945 0 0 -3970c-902,458 -1521,1396 -1521,2478 0,1534 1241,2778 2773,2778 316,0 620,-53 903,-151l543 653c-442,196 -932,305 -1446,305 -1977,0 -3579,-1605 -3579,-3585 0,-1876 1439,-3415 3272,-3571 0,1189 0,2379 0,3568l914 -1175 1107 0 -987 1268 1749 2102 2185 0 5080 0 3409 0c650,-507 1068,-1298 1068,-2187 0,-1344 -955,-2464 -2224,-2719 -110,-26 -221,-45 -335,-54l-11437 0 0 -809 11221 0c1978,0 3582,1604 3582,3582 0,1253 -644,2356 -1619,2996z"/>
  <path class="fil1" d="M6055 2411l820 0 0 2005 1285 0 0 653 -2105 0 0 -2658zm4112 2220l-931 0 -134 438 -838 0 1000 -2658 899 0 997 2658 -860 0 -133 -438zm-174 -576l-291 -955 -291 955 582 0zm1285 135l780 -49c16,126 51,223 103,288 85,107 205,161 363,161 117,0 207,-27 270,-82 64,-55 95,-119 95,-191 0,-69 -29,-131 -89,-185 -60,-55 -200,-106 -420,-155 -360,-80 -616,-188 -770,-322 -154,-134 -232,-304 -232,-512 0,-136 40,-265 119,-386 79,-122 198,-218 357,-287 159,-69 377,-104 654,-104 339,0 598,63 776,190 178,126 284,327 318,603l-772 46c-21,-120 -64,-208 -129,-263 -67,-55 -158,-82 -273,-82 -96,0 -168,20 -216,61 -49,40 -73,89 -73,147 0,43 20,80 59,114 38,36 129,68 274,98 359,77 616,156 771,235 155,79 268,177 339,295 70,117 106,248 106,393 0,171 -47,328 -142,472 -94,143 -225,253 -395,327 -169,75 -382,112 -639,112 -452,0 -765,-88 -939,-262 -174,-173 -272,-394 -295,-662zm4458 441l-931 0 -134 438 -838 0 1001 -2658 899 0 996 2658 -860 0 -133 -438zm-174 -576l-290 -955 -292 955 582 0z"/>
 </g>
</svg>
